<svg width="149" height="29" viewBox="0 0 149 29" fill="none" xmlns="http://www.w3.org/2000/svg">
<path d="M0.88 11.72H6.96V5.64H11.52V11.72H17.6V16.28H11.52V22.36H6.96V16.28H0.88V11.72ZM32.0522 22.96V2.64H31.3322L28.6922 12.24H23.6522V11.76L27.0122 -1.90735e-06H37.3322V22.96H44.2922V28H24.1322V22.96H32.0522Z" fill="#00C2FF"/>
<path d="M62.7166 28H57.6766V8.16H62.7166V11.12H63.4366C63.89 10 64.6233 9.13333 65.6366 8.52C66.65 7.90667 67.8366 7.6 69.1966 7.6C70.1566 7.6 71.05 7.76 71.8766 8.08C72.73 8.37333 73.4766 8.84 74.1166 9.48C74.7566 10.12 75.25 10.9333 75.5966 11.92C75.97 12.9067 76.1566 14.08 76.1566 15.44V28H71.1166V16.72C71.1166 15.3067 70.77 14.2 70.0766 13.4C69.41 12.5733 68.4366 12.16 67.1566 12.16C65.6633 12.16 64.5433 12.6667 63.7966 13.68C63.0766 14.6667 62.7166 16 62.7166 17.68V28ZM95.6088 8.16H100.649V28H95.6088V25.12H94.8888C94.0088 27.4133 92.1155 28.56 89.2088 28.56C88.2222 28.56 87.3022 28.4 86.4488 28.08C85.5955 27.76 84.8488 27.2667 84.2088 26.6C83.5688 25.9333 83.0622 25.1067 82.6888 24.12C82.3422 23.1067 82.1688 21.92 82.1688 20.56V8.16H87.2088V19.52C87.2088 20.9333 87.5422 22.04 88.2088 22.84C88.8755 23.6133 89.8755 24 91.2088 24C92.7288 24 93.8355 23.52 94.5288 22.56C95.2488 21.5733 95.6088 20.24 95.6088 18.56V8.16ZM126.581 28H121.541V14.08C121.541 13.52 121.394 13.1067 121.101 12.84C120.834 12.5467 120.474 12.4 120.021 12.4C119.488 12.4 119.061 12.56 118.741 12.88C118.448 13.2 118.301 13.68 118.301 14.32V28H113.261V14.08C113.261 13.52 113.101 13.1067 112.781 12.84C112.488 12.5467 112.128 12.4 111.701 12.4C111.221 12.4 110.821 12.56 110.501 12.88C110.181 13.2 110.021 13.68 110.021 14.32V28H104.981V8.16H110.021V10.08H110.741C110.901 9.36 111.261 8.77333 111.821 8.32C112.408 7.84 113.168 7.6 114.101 7.6C114.981 7.6 115.728 7.84 116.341 8.32C116.954 8.77333 117.368 9.36 117.581 10.08H118.301C118.514 9.36 118.954 8.77333 119.621 8.32C120.314 7.84 121.168 7.6 122.181 7.6C123.514 7.6 124.581 8.05333 125.381 8.96C126.181 9.84 126.581 11.0667 126.581 12.64V28ZM137.473 13.76C137.473 14.4 137.807 14.8667 138.473 15.16C139.14 15.4267 140.353 15.6533 142.113 15.84C144.14 16.0533 145.793 16.6667 147.073 17.68C148.353 18.6667 148.993 20.0533 148.993 21.84V22.08C148.993 24.0533 148.273 25.6267 146.833 26.8C145.393 27.9733 143.367 28.56 140.753 28.56C139.207 28.56 137.887 28.36 136.793 27.96C135.7 27.56 134.793 27.0667 134.073 26.48C133.353 25.8667 132.793 25.2 132.393 24.48C132.02 23.7333 131.767 23.0133 131.633 22.32L136.273 20.8C136.487 21.6533 136.927 22.4 137.593 23.04C138.287 23.68 139.34 24 140.753 24C142.007 24 142.86 23.8133 143.313 23.44C143.793 23.04 144.033 22.6133 144.033 22.16C144.033 21.8933 143.967 21.6533 143.833 21.44C143.727 21.2 143.513 20.9867 143.193 20.8C142.873 20.5867 142.433 20.4133 141.873 20.28C141.34 20.1467 140.66 20.04 139.833 19.96C137.593 19.7733 135.807 19.2 134.473 18.24C133.167 17.2533 132.513 15.8133 132.513 13.92V13.68C132.513 12.6933 132.727 11.8267 133.153 11.08C133.58 10.3333 134.14 9.70667 134.833 9.2C135.527 8.66667 136.327 8.26667 137.233 8C138.14 7.73333 139.073 7.6 140.033 7.6C141.287 7.6 142.367 7.76 143.273 8.08C144.207 8.37333 144.993 8.77333 145.633 9.28C146.273 9.76 146.793 10.3067 147.193 10.92C147.593 11.5067 147.9 12.08 148.113 12.64L143.553 14.48C143.313 13.76 142.9 13.2 142.313 12.8C141.727 12.3733 140.967 12.16 140.033 12.16C139.18 12.16 138.54 12.32 138.113 12.64C137.687 12.9333 137.473 13.3067 137.473 13.76Z" fill="white"/>
</svg>
