<svg width="1920" height="1093" viewBox="0 0 1920 1093" fill="none" xmlns="http://www.w3.org/2000/svg">
<rect width="1920" height="1080" fill="#1F1F1F"/>
<path d="M1215.6 511H1196.7V436.6H1215.6V447.7H1218.3C1220 443.5 1222.75 440.25 1226.55 437.95C1230.35 435.65 1234.8 434.5 1239.9 434.5C1243.5 434.5 1246.85 435.1 1249.95 436.3C1253.15 437.4 1255.95 439.15 1258.35 441.55C1260.75 443.95 1262.6 447 1263.9 450.7C1265.3 454.4 1266 458.8 1266 463.9V511H1247.1V468.7C1247.1 463.4 1245.8 459.25 1243.2 456.25C1240.7 453.15 1237.05 451.6 1232.25 451.6C1226.65 451.6 1222.45 453.5 1219.65 457.3C1216.95 461 1215.6 466 1215.6 472.3V511ZM1338.95 436.6H1357.85V511H1338.95V500.2H1336.25C1332.95 508.8 1325.85 513.1 1314.95 513.1C1311.25 513.1 1307.8 512.5 1304.6 511.3C1301.4 510.1 1298.6 508.25 1296.2 505.75C1293.8 503.25 1291.9 500.15 1290.5 496.45C1289.2 492.65 1288.55 488.2 1288.55 483.1V436.6H1307.45V479.2C1307.45 484.5 1308.7 488.65 1311.2 491.65C1313.7 494.55 1317.45 496 1322.45 496C1328.15 496 1332.3 494.2 1334.9 490.6C1337.6 486.9 1338.95 481.9 1338.95 475.6V436.6ZM1455.09 511H1436.19V458.8C1436.19 456.7 1435.64 455.15 1434.54 454.15C1433.54 453.05 1432.19 452.5 1430.49 452.5C1428.49 452.5 1426.89 453.1 1425.69 454.3C1424.59 455.5 1424.04 457.3 1424.04 459.7V511H1405.14V458.8C1405.14 456.7 1404.54 455.15 1403.34 454.15C1402.24 453.05 1400.89 452.5 1399.29 452.5C1397.49 452.5 1395.99 453.1 1394.79 454.3C1393.59 455.5 1392.99 457.3 1392.99 459.7V511H1374.09V436.6H1392.99V443.8H1395.69C1396.29 441.1 1397.64 438.9 1399.74 437.2C1401.94 435.4 1404.79 434.5 1408.29 434.5C1411.59 434.5 1414.39 435.4 1416.69 437.2C1418.99 438.9 1420.54 441.1 1421.34 443.8H1424.04C1424.84 441.1 1426.49 438.9 1428.99 437.2C1431.59 435.4 1434.79 434.5 1438.59 434.5C1443.59 434.5 1447.59 436.2 1450.59 439.6C1453.59 442.9 1455.09 447.5 1455.09 453.4V511ZM1495.94 457.6C1495.94 460 1497.19 461.75 1499.69 462.85C1502.19 463.85 1506.74 464.7 1513.34 465.4C1520.94 466.2 1527.14 468.5 1531.94 472.3C1536.74 476 1539.14 481.2 1539.14 487.9V488.8C1539.14 496.2 1536.44 502.1 1531.04 506.5C1525.64 510.9 1518.04 513.1 1508.24 513.1C1502.44 513.1 1497.49 512.35 1493.39 510.85C1489.29 509.35 1485.89 507.5 1483.19 505.3C1480.49 503 1478.39 500.5 1476.89 497.8C1475.49 495 1474.54 492.3 1474.04 489.7L1491.44 484C1492.24 487.2 1493.89 490 1496.39 492.4C1498.99 494.8 1502.94 496 1508.24 496C1512.94 496 1516.14 495.3 1517.84 493.9C1519.64 492.4 1520.54 490.8 1520.54 489.1C1520.54 488.1 1520.29 487.2 1519.79 486.4C1519.39 485.5 1518.59 484.7 1517.39 484C1516.19 483.2 1514.54 482.55 1512.44 482.05C1510.44 481.55 1507.89 481.15 1504.79 480.85C1496.39 480.15 1489.69 478 1484.69 474.4C1479.79 470.7 1477.34 465.3 1477.34 458.2V457.3C1477.34 453.6 1478.14 450.35 1479.74 447.55C1481.34 444.75 1483.44 442.4 1486.04 440.5C1488.64 438.5 1491.64 437 1495.04 436C1498.44 435 1501.94 434.5 1505.54 434.5C1510.24 434.5 1514.29 435.1 1517.69 436.3C1521.19 437.4 1524.14 438.9 1526.54 440.8C1528.94 442.6 1530.89 444.65 1532.39 446.95C1533.89 449.15 1535.04 451.3 1535.84 453.4L1518.74 460.3C1517.84 457.6 1516.29 455.5 1514.09 454C1511.89 452.4 1509.04 451.6 1505.54 451.6C1502.34 451.6 1499.94 452.2 1498.34 453.4C1496.74 454.5 1495.94 455.9 1495.94 457.6Z" fill="white"/>
<path d="M211.244 520.636H310.348V421.532H384.676V520.636H483.78V594.964H384.676V694.068H310.348V594.964H211.244V520.636ZM719.351 703.848V372.632H707.615L664.583 529.112H582.431V521.288L637.199 329.6H805.415V703.848H918.863V786H590.255V703.848H719.351Z" fill="#00C2FF"/>
<path d="M1047.09 649.352C1046.37 653.107 1044.64 656.136 1041.91 658.44C1039.22 660.744 1035.62 661.896 1031.09 661.896C1028.75 661.896 1026.55 661.533 1024.5 660.808C1022.5 660.083 1020.75 659.037 1019.25 657.672C1017.76 656.307 1016.59 654.621 1015.73 652.616C1014.88 650.611 1014.45 648.328 1014.45 645.768V645C1014.45 642.44 1014.88 640.136 1015.73 638.088C1016.59 636.04 1017.76 634.291 1019.25 632.84C1020.79 631.389 1022.56 630.28 1024.57 629.512C1026.61 628.744 1028.79 628.36 1031.09 628.36C1035.53 628.36 1039.11 629.512 1041.85 631.816C1044.62 634.12 1046.37 637.149 1047.09 640.904L1039.16 642.952C1038.9 641.075 1038.09 639.453 1036.73 638.088C1035.36 636.723 1033.44 636.04 1030.97 636.04C1029.81 636.04 1028.73 636.253 1027.7 636.68C1026.68 637.107 1025.78 637.725 1025.01 638.536C1024.25 639.304 1023.63 640.264 1023.16 641.416C1022.73 642.525 1022.52 643.784 1022.52 645.192V645.576C1022.52 646.984 1022.73 648.243 1023.16 649.352C1023.63 650.419 1024.25 651.315 1025.01 652.04C1025.78 652.765 1026.68 653.32 1027.7 653.704C1028.73 654.045 1029.81 654.216 1030.97 654.216C1033.44 654.216 1035.32 653.597 1036.6 652.36C1037.92 651.123 1038.77 649.459 1039.16 647.368L1047.09 649.352ZM1086.41 645.512C1086.41 648.157 1085.96 650.504 1085.06 652.552C1084.17 654.557 1082.95 656.264 1081.42 657.672C1079.88 659.037 1078.11 660.083 1076.1 660.808C1074.14 661.533 1072.07 661.896 1069.9 661.896C1067.72 661.896 1065.63 661.533 1063.62 660.808C1061.66 660.083 1059.91 659.037 1058.38 657.672C1056.84 656.264 1055.62 654.557 1054.73 652.552C1053.83 650.504 1053.38 648.157 1053.38 645.512V644.744C1053.38 642.141 1053.83 639.837 1054.73 637.832C1055.62 635.784 1056.84 634.056 1058.38 632.648C1059.91 631.24 1061.66 630.173 1063.62 629.448C1065.63 628.723 1067.72 628.36 1069.9 628.36C1072.07 628.36 1074.14 628.723 1076.1 629.448C1078.11 630.173 1079.88 631.24 1081.42 632.648C1082.95 634.056 1084.17 635.784 1085.06 637.832C1085.96 639.837 1086.41 642.141 1086.41 644.744V645.512ZM1069.9 654.216C1071.05 654.216 1072.14 654.024 1073.16 653.64C1074.18 653.256 1075.08 652.701 1075.85 651.976C1076.62 651.251 1077.21 650.376 1077.64 649.352C1078.11 648.285 1078.34 647.091 1078.34 645.768V644.488C1078.34 643.165 1078.11 641.992 1077.64 640.968C1077.21 639.901 1076.62 639.005 1075.85 638.28C1075.08 637.555 1074.18 637 1073.16 636.616C1072.14 636.232 1071.05 636.04 1069.9 636.04C1068.74 636.04 1067.66 636.232 1066.63 636.616C1065.61 637 1064.71 637.555 1063.94 638.28C1063.18 639.005 1062.56 639.901 1062.09 640.968C1061.66 641.992 1061.45 643.165 1061.45 644.488V645.768C1061.45 647.091 1061.66 648.285 1062.09 649.352C1062.56 650.376 1063.18 651.251 1063.94 651.976C1064.71 652.701 1065.61 653.256 1066.63 653.64C1067.66 654.024 1068.74 654.216 1069.9 654.216ZM1116 629.256H1124.06V661H1116V656.392H1114.84C1113.44 660.061 1110.41 661.896 1105.76 661.896C1104.18 661.896 1102.71 661.64 1101.34 661.128C1099.97 660.616 1098.78 659.827 1097.76 658.76C1096.73 657.693 1095.92 656.371 1095.32 654.792C1094.77 653.171 1094.49 651.272 1094.49 649.096V629.256H1102.56V647.432C1102.56 649.693 1103.09 651.464 1104.16 652.744C1105.22 653.981 1106.82 654.6 1108.96 654.6C1111.39 654.6 1113.16 653.832 1114.27 652.296C1115.42 650.717 1116 648.584 1116 645.896V629.256ZM1141.74 661H1133.68V629.256H1141.74V633.992H1142.9C1143.62 632.2 1144.79 630.813 1146.42 629.832C1148.04 628.851 1149.94 628.36 1152.11 628.36C1153.65 628.36 1155.08 628.616 1156.4 629.128C1157.76 629.597 1158.96 630.344 1159.98 631.368C1161.01 632.392 1161.8 633.693 1162.35 635.272C1162.95 636.851 1163.25 638.728 1163.25 640.904V661H1155.18V642.952C1155.18 640.691 1154.63 638.92 1153.52 637.64C1152.45 636.317 1150.9 635.656 1148.85 635.656C1146.46 635.656 1144.67 636.467 1143.47 638.088C1142.32 639.667 1141.74 641.8 1141.74 644.488V661ZM1171.97 629.256H1181.38V616.2H1189.44V629.256H1200.9V636.936H1189.44V651.4C1189.44 652.68 1190.02 653.32 1191.17 653.32H1199.75V661H1186.31C1184.86 661 1183.66 660.531 1182.72 659.592C1181.83 658.653 1181.38 657.459 1181.38 656.008V636.936H1171.97V629.256ZM1282.35 661H1268.39L1266.6 636.936V633.096H1265.07V636.936L1263.27 661H1249.32L1247.21 629.256H1254.63L1256.04 653.32V657.16H1257.58V653.32L1259.18 629.256H1272.49L1274.09 653.32V657.16H1275.63V653.32L1277.03 629.256H1284.46L1282.35 661ZM1297.53 647.752C1297.58 648.691 1297.79 649.565 1298.17 650.376C1298.6 651.144 1299.15 651.827 1299.84 652.424C1300.56 652.979 1301.37 653.427 1302.27 653.768C1303.21 654.067 1304.19 654.216 1305.21 654.216C1307.22 654.216 1308.75 653.875 1309.82 653.192C1310.89 652.467 1311.66 651.613 1312.13 650.632L1319.04 654.472C1318.65 655.283 1318.12 656.136 1317.44 657.032C1316.75 657.885 1315.86 658.675 1314.75 659.4C1313.68 660.125 1312.36 660.723 1310.78 661.192C1309.25 661.661 1307.43 661.896 1305.34 661.896C1302.95 661.896 1300.78 661.512 1298.81 660.744C1296.85 659.976 1295.14 658.867 1293.69 657.416C1292.29 655.965 1291.18 654.195 1290.37 652.104C1289.6 650.013 1289.21 647.645 1289.21 645V644.616C1289.21 642.184 1289.62 639.965 1290.43 637.96C1291.28 635.955 1292.43 634.248 1293.89 632.84C1295.34 631.432 1297.02 630.344 1298.94 629.576C1300.9 628.765 1302.99 628.36 1305.21 628.36C1307.94 628.36 1310.29 628.851 1312.25 629.832C1314.22 630.771 1315.84 631.987 1317.12 633.48C1318.4 634.931 1319.34 636.552 1319.93 638.344C1320.53 640.093 1320.83 641.8 1320.83 643.464V647.752H1297.53ZM1305.15 635.656C1303.1 635.656 1301.44 636.189 1300.16 637.256C1298.88 638.28 1298.05 639.475 1297.66 640.84H1312.64C1312.38 639.347 1311.57 638.109 1310.21 637.128C1308.88 636.147 1307.2 635.656 1305.15 635.656ZM1336.34 661H1328.27V616.2H1336.34V633.864H1337.49C1338.34 632.115 1339.58 630.771 1341.2 629.832C1342.82 628.851 1344.89 628.36 1347.41 628.36C1349.29 628.36 1351.06 628.723 1352.72 629.448C1354.43 630.173 1355.9 631.24 1357.14 632.648C1358.42 634.013 1359.42 635.699 1360.15 637.704C1360.91 639.709 1361.3 641.992 1361.3 644.552V645.704C1361.3 648.307 1360.93 650.611 1360.21 652.616C1359.48 654.621 1358.5 656.328 1357.27 657.736C1356.03 659.101 1354.56 660.147 1352.85 660.872C1351.19 661.555 1349.37 661.896 1347.41 661.896C1345.96 661.896 1344.7 661.747 1343.63 661.448C1342.57 661.149 1341.63 660.744 1340.82 660.232C1340.05 659.72 1339.39 659.144 1338.83 658.504C1338.32 657.821 1337.87 657.117 1337.49 656.392H1336.34V661ZM1344.79 654.216C1347.3 654.216 1349.33 653.448 1350.87 651.912C1352.44 650.333 1353.23 648.2 1353.23 645.512V644.744C1353.23 642.056 1352.44 639.944 1350.87 638.408C1349.33 636.829 1347.3 636.04 1344.79 636.04C1342.27 636.04 1340.22 636.851 1338.64 638.472C1337.11 640.051 1336.34 642.141 1336.34 644.744V645.512C1336.34 648.115 1337.11 650.227 1338.64 651.848C1340.22 653.427 1342.27 654.216 1344.79 654.216ZM1378.92 638.216C1378.92 639.24 1379.45 639.987 1380.52 640.456C1381.58 640.883 1383.52 641.245 1386.34 641.544C1389.58 641.885 1392.23 642.867 1394.28 644.488C1396.32 646.067 1397.35 648.285 1397.35 651.144V651.528C1397.35 654.685 1396.2 657.203 1393.89 659.08C1391.59 660.957 1388.35 661.896 1384.16 661.896C1381.69 661.896 1379.58 661.576 1377.83 660.936C1376.08 660.296 1374.63 659.507 1373.48 658.568C1372.32 657.587 1371.43 656.52 1370.79 655.368C1370.19 654.173 1369.79 653.021 1369.57 651.912L1377 649.48C1377.34 650.845 1378.04 652.04 1379.11 653.064C1380.22 654.088 1381.9 654.6 1384.16 654.6C1386.17 654.6 1387.54 654.301 1388.26 653.704C1389.03 653.064 1389.41 652.381 1389.41 651.656C1389.41 651.229 1389.31 650.845 1389.09 650.504C1388.92 650.12 1388.58 649.779 1388.07 649.48C1387.56 649.139 1386.85 648.861 1385.96 648.648C1385.1 648.435 1384.02 648.264 1382.69 648.136C1379.11 647.837 1376.25 646.92 1374.12 645.384C1372.03 643.805 1370.98 641.501 1370.98 638.472V638.088C1370.98 636.509 1371.32 635.123 1372 633.928C1372.69 632.733 1373.58 631.731 1374.69 630.92C1375.8 630.067 1377.08 629.427 1378.53 629C1379.98 628.573 1381.48 628.36 1383.01 628.36C1385.02 628.36 1386.75 628.616 1388.2 629.128C1389.69 629.597 1390.95 630.237 1391.97 631.048C1393 631.816 1393.83 632.691 1394.47 633.672C1395.11 634.611 1395.6 635.528 1395.94 636.424L1388.64 639.368C1388.26 638.216 1387.6 637.32 1386.66 636.68C1385.72 635.997 1384.51 635.656 1383.01 635.656C1381.65 635.656 1380.62 635.912 1379.94 636.424C1379.26 636.893 1378.92 637.491 1378.92 638.216ZM1408.57 653.32H1419.32V636.936H1409.34V629.256H1427.38V653.32H1436.6V661H1408.57V653.32ZM1429.37 619.848C1429.37 620.701 1429.2 621.512 1428.86 622.28C1428.56 623.005 1428.13 623.645 1427.58 624.2C1427.02 624.712 1426.36 625.139 1425.59 625.48C1424.87 625.779 1424.1 625.928 1423.29 625.928C1422.43 625.928 1421.65 625.779 1420.92 625.48C1420.19 625.139 1419.55 624.712 1419 624.2C1418.45 623.645 1418 623.005 1417.66 622.28C1417.36 621.512 1417.21 620.701 1417.21 619.848C1417.21 618.995 1417.36 618.205 1417.66 617.48C1418 616.712 1418.45 616.072 1419 615.56C1419.55 615.005 1420.19 614.579 1420.92 614.28C1421.65 613.939 1422.43 613.768 1423.29 613.768C1424.1 613.768 1424.87 613.939 1425.59 614.28C1426.36 614.579 1427.02 615.005 1427.58 615.56C1428.13 616.072 1428.56 616.712 1428.86 617.48C1429.2 618.205 1429.37 618.995 1429.37 619.848ZM1446.28 629.256H1455.69V616.2H1463.76V629.256H1475.21V636.936H1463.76V651.4C1463.76 652.68 1464.33 653.32 1465.48 653.32H1474.06V661H1460.62C1459.17 661 1457.97 660.531 1457.04 659.592C1456.14 658.653 1455.69 657.459 1455.69 656.008V636.936H1446.28V629.256ZM1493.47 647.752C1493.51 648.691 1493.73 649.565 1494.11 650.376C1494.54 651.144 1495.09 651.827 1495.78 652.424C1496.5 652.979 1497.31 653.427 1498.21 653.768C1499.15 654.067 1500.13 654.216 1501.15 654.216C1503.16 654.216 1504.69 653.875 1505.76 653.192C1506.83 652.467 1507.59 651.613 1508.06 650.632L1514.98 654.472C1514.59 655.283 1514.06 656.136 1513.38 657.032C1512.69 657.885 1511.8 658.675 1510.69 659.4C1509.62 660.125 1508.3 660.723 1506.72 661.192C1505.18 661.661 1503.37 661.896 1501.28 661.896C1498.89 661.896 1496.71 661.512 1494.75 660.744C1492.79 659.976 1491.08 658.867 1489.63 657.416C1488.22 655.965 1487.11 654.195 1486.3 652.104C1485.54 650.013 1485.15 647.645 1485.15 645V644.616C1485.15 642.184 1485.56 639.965 1486.37 637.96C1487.22 635.955 1488.37 634.248 1489.82 632.84C1491.27 631.432 1492.96 630.344 1494.88 629.576C1496.84 628.765 1498.93 628.36 1501.15 628.36C1503.88 628.36 1506.23 628.851 1508.19 629.832C1510.15 630.771 1511.78 631.987 1513.06 633.48C1514.34 634.931 1515.27 636.552 1515.87 638.344C1516.47 640.093 1516.77 641.8 1516.77 643.464V647.752H1493.47ZM1501.09 635.656C1499.04 635.656 1497.38 636.189 1496.1 637.256C1494.82 638.28 1493.98 639.475 1493.6 640.84H1508.58C1508.32 639.347 1507.51 638.109 1506.14 637.128C1504.82 636.147 1503.14 635.656 1501.09 635.656ZM1562.5 629.256H1571.21L1578.69 657.16H1579.85L1587.33 629.256H1596.04L1586.95 661H1571.59L1562.5 629.256ZM1604.51 653.32H1615.26V636.936H1605.27V629.256H1623.32V653.32H1632.54V661H1604.51V653.32ZM1625.31 619.848C1625.31 620.701 1625.13 621.512 1624.79 622.28C1624.49 623.005 1624.07 623.645 1623.51 624.2C1622.96 624.712 1622.3 625.139 1621.53 625.48C1620.8 625.779 1620.04 625.928 1619.23 625.928C1618.37 625.928 1617.58 625.779 1616.86 625.48C1616.13 625.139 1615.49 624.712 1614.94 624.2C1614.38 623.645 1613.93 623.005 1613.59 622.28C1613.29 621.512 1613.15 620.701 1613.15 619.848C1613.15 618.995 1613.29 618.205 1613.59 617.48C1613.93 616.712 1614.38 616.072 1614.94 615.56C1615.49 615.005 1616.13 614.579 1616.86 614.28C1617.58 613.939 1618.37 613.768 1619.23 613.768C1620.04 613.768 1620.8 613.939 1621.53 614.28C1622.3 614.579 1622.96 615.005 1623.51 615.56C1624.07 616.072 1624.49 616.712 1624.79 617.48C1625.13 618.205 1625.31 618.995 1625.31 619.848ZM1653.23 638.216C1653.23 639.24 1653.76 639.987 1654.83 640.456C1655.9 640.883 1657.84 641.245 1660.65 641.544C1663.9 641.885 1666.54 642.867 1668.59 644.488C1670.64 646.067 1671.66 648.285 1671.66 651.144V651.528C1671.66 654.685 1670.51 657.203 1668.21 659.08C1665.9 660.957 1662.66 661.896 1658.48 661.896C1656 661.896 1653.89 661.576 1652.14 660.936C1650.39 660.296 1648.94 659.507 1647.79 658.568C1646.64 657.587 1645.74 656.52 1645.1 655.368C1644.5 654.173 1644.1 653.021 1643.89 651.912L1651.31 649.48C1651.65 650.845 1652.35 652.04 1653.42 653.064C1654.53 654.088 1656.22 654.6 1658.48 654.6C1660.48 654.6 1661.85 654.301 1662.57 653.704C1663.34 653.064 1663.73 652.381 1663.73 651.656C1663.73 651.229 1663.62 650.845 1663.41 650.504C1663.23 650.12 1662.89 649.779 1662.38 649.48C1661.87 649.139 1661.17 648.861 1660.27 648.648C1659.42 648.435 1658.33 648.264 1657.01 648.136C1653.42 647.837 1650.56 646.92 1648.43 645.384C1646.34 643.805 1645.29 641.501 1645.29 638.472V638.088C1645.29 636.509 1645.63 635.123 1646.32 633.928C1647 632.733 1647.9 631.731 1649.01 630.92C1650.11 630.067 1651.39 629.427 1652.85 629C1654.3 628.573 1655.79 628.36 1657.33 628.36C1659.33 628.36 1661.06 628.616 1662.51 629.128C1664 629.597 1665.26 630.237 1666.29 631.048C1667.31 631.816 1668.14 632.691 1668.78 633.672C1669.42 634.611 1669.91 635.528 1670.25 636.424L1662.96 639.368C1662.57 638.216 1661.91 637.32 1660.97 636.68C1660.03 635.997 1658.82 635.656 1657.33 635.656C1655.96 635.656 1654.94 635.912 1654.25 636.424C1653.57 636.893 1653.23 637.491 1653.23 638.216ZM1682.88 653.32H1693.63V636.936H1683.65V629.256H1701.7V653.32H1710.91V661H1682.88V653.32ZM1703.68 619.848C1703.68 620.701 1703.51 621.512 1703.17 622.28C1702.87 623.005 1702.44 623.645 1701.89 624.2C1701.33 624.712 1700.67 625.139 1699.9 625.48C1699.18 625.779 1698.41 625.928 1697.6 625.928C1696.75 625.928 1695.96 625.779 1695.23 625.48C1694.51 625.139 1693.87 624.712 1693.31 624.2C1692.76 623.645 1692.31 623.005 1691.97 622.28C1691.67 621.512 1691.52 620.701 1691.52 619.848C1691.52 618.995 1691.67 618.205 1691.97 617.48C1692.31 616.712 1692.76 616.072 1693.31 615.56C1693.87 615.005 1694.51 614.579 1695.23 614.28C1695.96 613.939 1696.75 613.768 1697.6 613.768C1698.41 613.768 1699.18 613.939 1699.9 614.28C1700.67 614.579 1701.33 615.005 1701.89 615.56C1702.44 616.072 1702.87 616.712 1703.17 617.48C1703.51 618.205 1703.68 618.995 1703.68 619.848ZM1720.6 629.256H1730V616.2H1738.07V629.256H1749.52V636.936H1738.07V651.4C1738.07 652.68 1738.64 653.32 1739.8 653.32H1748.37V661H1734.93C1733.48 661 1732.29 660.531 1731.35 659.592C1730.45 658.653 1730 657.459 1730 656.008V636.936H1720.6V629.256ZM1770.79 638.216C1770.79 639.24 1771.32 639.987 1772.39 640.456C1773.46 640.883 1775.4 641.245 1778.22 641.544C1781.46 641.885 1784.1 642.867 1786.15 644.488C1788.2 646.067 1789.22 648.285 1789.22 651.144V651.528C1789.22 654.685 1788.07 657.203 1785.77 659.08C1783.46 660.957 1780.22 661.896 1776.04 661.896C1773.56 661.896 1771.45 661.576 1769.7 660.936C1767.95 660.296 1766.5 659.507 1765.35 658.568C1764.2 657.587 1763.3 656.52 1762.66 655.368C1762.07 654.173 1761.66 653.021 1761.45 651.912L1768.87 649.48C1769.21 650.845 1769.92 652.04 1770.98 653.064C1772.09 654.088 1773.78 654.6 1776.04 654.6C1778.04 654.6 1779.41 654.301 1780.14 653.704C1780.9 653.064 1781.29 652.381 1781.29 651.656C1781.29 651.229 1781.18 650.845 1780.97 650.504C1780.8 650.12 1780.46 649.779 1779.94 649.48C1779.43 649.139 1778.73 648.861 1777.83 648.648C1776.98 648.435 1775.89 648.264 1774.57 648.136C1770.98 647.837 1768.12 646.92 1765.99 645.384C1763.9 643.805 1762.86 641.501 1762.86 638.472V638.088C1762.86 636.509 1763.2 635.123 1763.88 633.928C1764.56 632.733 1765.46 631.731 1766.57 630.92C1767.68 630.067 1768.96 629.427 1770.41 629C1771.86 628.573 1773.35 628.36 1774.89 628.36C1776.89 628.36 1778.62 628.616 1780.07 629.128C1781.56 629.597 1782.82 630.237 1783.85 631.048C1784.87 631.816 1785.7 632.691 1786.34 633.672C1786.98 634.611 1787.47 635.528 1787.82 636.424L1780.52 639.368C1780.14 638.216 1779.47 637.32 1778.54 636.68C1777.6 635.997 1776.38 635.656 1774.89 635.656C1773.52 635.656 1772.5 635.912 1771.82 636.424C1771.13 636.893 1770.79 637.491 1770.79 638.216Z" fill="#E2E2E2" fill-opacity="0.58"/>
</svg>
